<mxfile host="Electron" agent="Mozilla/5.0 (Macintosh; Intel Mac OS X 10_15_7) AppleWebKit/537.36 (KHTML, like Gecko) draw.io/26.2.2 Chrome/134.0.6998.178 Electron/35.1.2 Safari/537.36" version="26.2.2">
  <diagram id="C5RBs43oDa-KdzZeNtuy" name="Page-1">
    <mxGraphModel dx="2918" dy="976" grid="1" gridSize="10" guides="1" tooltips="1" connect="1" arrows="1" fold="1" page="1" pageScale="1" pageWidth="1654" pageHeight="1169" math="0" shadow="0">
      <root>
        <mxCell id="WIyWlLk6GJQsqaUBKTNV-0" />
        <mxCell id="WIyWlLk6GJQsqaUBKTNV-1" parent="WIyWlLk6GJQsqaUBKTNV-0" />
        <mxCell id="zkfFHV4jXpPFQw0GAbJ--0" value="DictionaryClientUI" style="swimlane;fontStyle=2;align=center;verticalAlign=top;childLayout=stackLayout;horizontal=1;startSize=26;horizontalStack=0;resizeParent=1;resizeLast=0;collapsible=1;marginBottom=0;rounded=0;shadow=0;strokeWidth=1;" parent="WIyWlLk6GJQsqaUBKTNV-1" vertex="1">
          <mxGeometry x="-1430" y="95" width="196" height="242" as="geometry">
            <mxRectangle x="230" y="140" width="160" height="26" as="alternateBounds" />
          </mxGeometry>
        </mxCell>
        <mxCell id="zkfFHV4jXpPFQw0GAbJ--1" value="- CardLayout cardLayout;" style="text;align=left;verticalAlign=top;spacingLeft=4;spacingRight=4;overflow=hidden;rotatable=0;points=[[0,0.5],[1,0.5]];portConstraint=eastwest;" parent="zkfFHV4jXpPFQw0GAbJ--0" vertex="1">
          <mxGeometry y="26" width="196" height="26" as="geometry" />
        </mxCell>
        <mxCell id="zkfFHV4jXpPFQw0GAbJ--2" value="- Jpanel mainContainer;" style="text;align=left;verticalAlign=top;spacingLeft=4;spacingRight=4;overflow=hidden;rotatable=0;points=[[0,0.5],[1,0.5]];portConstraint=eastwest;rounded=0;shadow=0;html=0;" parent="zkfFHV4jXpPFQw0GAbJ--0" vertex="1">
          <mxGeometry y="52" width="196" height="26" as="geometry" />
        </mxCell>
        <mxCell id="zkfFHV4jXpPFQw0GAbJ--3" value="- JTextField portField;" style="text;align=left;verticalAlign=top;spacingLeft=4;spacingRight=4;overflow=hidden;rotatable=0;points=[[0,0.5],[1,0.5]];portConstraint=eastwest;rounded=0;shadow=0;html=0;" parent="zkfFHV4jXpPFQw0GAbJ--0" vertex="1">
          <mxGeometry y="78" width="196" height="26" as="geometry" />
        </mxCell>
        <mxCell id="I50rtq2obIs9mzNsYuY3-7" value="- (other UI attributes);" style="text;align=left;verticalAlign=top;spacingLeft=4;spacingRight=4;overflow=hidden;rotatable=0;points=[[0,0.5],[1,0.5]];portConstraint=eastwest;rounded=0;shadow=0;html=0;" vertex="1" parent="zkfFHV4jXpPFQw0GAbJ--0">
          <mxGeometry y="104" width="196" height="26" as="geometry" />
        </mxCell>
        <mxCell id="zkfFHV4jXpPFQw0GAbJ--4" value="" style="line;html=1;strokeWidth=1;align=left;verticalAlign=middle;spacingTop=-1;spacingLeft=3;spacingRight=3;rotatable=0;labelPosition=right;points=[];portConstraint=eastwest;" parent="zkfFHV4jXpPFQw0GAbJ--0" vertex="1">
          <mxGeometry y="130" width="196" height="8" as="geometry" />
        </mxCell>
        <mxCell id="zkfFHV4jXpPFQw0GAbJ--5" value="- createConnectionPage(): JPanel;" style="text;align=left;verticalAlign=top;spacingLeft=4;spacingRight=4;overflow=hidden;rotatable=0;points=[[0,0.5],[1,0.5]];portConstraint=eastwest;" parent="zkfFHV4jXpPFQw0GAbJ--0" vertex="1">
          <mxGeometry y="138" width="196" height="26" as="geometry" />
        </mxCell>
        <mxCell id="I50rtq2obIs9mzNsYuY3-13" value="- createFunctionPage(): JPanel;" style="text;align=left;verticalAlign=top;spacingLeft=4;spacingRight=4;overflow=hidden;rotatable=0;points=[[0,0.5],[1,0.5]];portConstraint=eastwest;" vertex="1" parent="zkfFHV4jXpPFQw0GAbJ--0">
          <mxGeometry y="164" width="196" height="26" as="geometry" />
        </mxCell>
        <mxCell id="I50rtq2obIs9mzNsYuY3-16" value="- handleConnect(): void;" style="text;align=left;verticalAlign=top;spacingLeft=4;spacingRight=4;overflow=hidden;rotatable=0;points=[[0,0.5],[1,0.5]];portConstraint=eastwest;" vertex="1" parent="zkfFHV4jXpPFQw0GAbJ--0">
          <mxGeometry y="190" width="196" height="26" as="geometry" />
        </mxCell>
        <mxCell id="I50rtq2obIs9mzNsYuY3-17" value="- updateGuide(): void;" style="text;align=left;verticalAlign=top;spacingLeft=4;spacingRight=4;overflow=hidden;rotatable=0;points=[[0,0.5],[1,0.5]];portConstraint=eastwest;" vertex="1" parent="zkfFHV4jXpPFQw0GAbJ--0">
          <mxGeometry y="216" width="196" height="26" as="geometry" />
        </mxCell>
        <mxCell id="zkfFHV4jXpPFQw0GAbJ--17" value="Client" style="swimlane;fontStyle=0;align=center;verticalAlign=top;childLayout=stackLayout;horizontal=1;startSize=26;horizontalStack=0;resizeParent=1;resizeLast=0;collapsible=1;marginBottom=0;rounded=0;shadow=0;strokeWidth=1;" parent="WIyWlLk6GJQsqaUBKTNV-1" vertex="1">
          <mxGeometry x="-1040" y="95" width="425" height="242" as="geometry">
            <mxRectangle x="550" y="140" width="160" height="26" as="alternateBounds" />
          </mxGeometry>
        </mxCell>
        <mxCell id="zkfFHV4jXpPFQw0GAbJ--18" value="- Socket socket;" style="text;align=left;verticalAlign=top;spacingLeft=4;spacingRight=4;overflow=hidden;rotatable=0;points=[[0,0.5],[1,0.5]];portConstraint=eastwest;" parent="zkfFHV4jXpPFQw0GAbJ--17" vertex="1">
          <mxGeometry y="26" width="425" height="26" as="geometry" />
        </mxCell>
        <mxCell id="zkfFHV4jXpPFQw0GAbJ--19" value="- PrintWriter writer;" style="text;align=left;verticalAlign=top;spacingLeft=4;spacingRight=4;overflow=hidden;rotatable=0;points=[[0,0.5],[1,0.5]];portConstraint=eastwest;rounded=0;shadow=0;html=0;" parent="zkfFHV4jXpPFQw0GAbJ--17" vertex="1">
          <mxGeometry y="52" width="425" height="26" as="geometry" />
        </mxCell>
        <mxCell id="zkfFHV4jXpPFQw0GAbJ--20" value="- BufferedReader reader;" style="text;align=left;verticalAlign=top;spacingLeft=4;spacingRight=4;overflow=hidden;rotatable=0;points=[[0,0.5],[1,0.5]];portConstraint=eastwest;rounded=0;shadow=0;html=0;" parent="zkfFHV4jXpPFQw0GAbJ--17" vertex="1">
          <mxGeometry y="78" width="425" height="26" as="geometry" />
        </mxCell>
        <mxCell id="zkfFHV4jXpPFQw0GAbJ--23" value="" style="line;html=1;strokeWidth=1;align=left;verticalAlign=middle;spacingTop=-1;spacingLeft=3;spacingRight=3;rotatable=0;labelPosition=right;points=[];portConstraint=eastwest;" parent="zkfFHV4jXpPFQw0GAbJ--17" vertex="1">
          <mxGeometry y="104" width="425" height="8" as="geometry" />
        </mxCell>
        <mxCell id="zkfFHV4jXpPFQw0GAbJ--24" value="+ query(String word): String;" style="text;align=left;verticalAlign=top;spacingLeft=4;spacingRight=4;overflow=hidden;rotatable=0;points=[[0,0.5],[1,0.5]];portConstraint=eastwest;" parent="zkfFHV4jXpPFQw0GAbJ--17" vertex="1">
          <mxGeometry y="112" width="425" height="26" as="geometry" />
        </mxCell>
        <mxCell id="zkfFHV4jXpPFQw0GAbJ--25" value="+ add(String word, List&lt;String&gt; meanings): String;" style="text;align=left;verticalAlign=top;spacingLeft=4;spacingRight=4;overflow=hidden;rotatable=0;points=[[0,0.5],[1,0.5]];portConstraint=eastwest;" parent="zkfFHV4jXpPFQw0GAbJ--17" vertex="1">
          <mxGeometry y="138" width="425" height="26" as="geometry" />
        </mxCell>
        <mxCell id="I50rtq2obIs9mzNsYuY3-18" value="+ remove(String word): String;" style="text;align=left;verticalAlign=top;spacingLeft=4;spacingRight=4;overflow=hidden;rotatable=0;points=[[0,0.5],[1,0.5]];portConstraint=eastwest;" vertex="1" parent="zkfFHV4jXpPFQw0GAbJ--17">
          <mxGeometry y="164" width="425" height="26" as="geometry" />
        </mxCell>
        <mxCell id="I50rtq2obIs9mzNsYuY3-19" value="+ addMeaning(String word, String newMeaning): String;" style="text;align=left;verticalAlign=top;spacingLeft=4;spacingRight=4;overflow=hidden;rotatable=0;points=[[0,0.5],[1,0.5]];portConstraint=eastwest;" vertex="1" parent="zkfFHV4jXpPFQw0GAbJ--17">
          <mxGeometry y="190" width="425" height="26" as="geometry" />
        </mxCell>
        <mxCell id="I50rtq2obIs9mzNsYuY3-20" value="+updateMeaning(String word, String oldMeaning, String newMeaning): String;" style="text;align=left;verticalAlign=top;spacingLeft=4;spacingRight=4;overflow=hidden;rotatable=0;points=[[0,0.5],[1,0.5]];portConstraint=eastwest;" vertex="1" parent="zkfFHV4jXpPFQw0GAbJ--17">
          <mxGeometry y="216" width="425" height="26" as="geometry" />
        </mxCell>
        <mxCell id="I50rtq2obIs9mzNsYuY3-21" value="ClientHandler" style="swimlane;fontStyle=2;align=center;verticalAlign=top;childLayout=stackLayout;horizontal=1;startSize=26;horizontalStack=0;resizeParent=1;resizeLast=0;collapsible=1;marginBottom=0;rounded=0;shadow=0;strokeWidth=1;" vertex="1" parent="WIyWlLk6GJQsqaUBKTNV-1">
          <mxGeometry x="-780" y="855" width="196" height="170" as="geometry">
            <mxRectangle x="230" y="140" width="160" height="26" as="alternateBounds" />
          </mxGeometry>
        </mxCell>
        <mxCell id="I50rtq2obIs9mzNsYuY3-22" value="- Socket socket;" style="text;align=left;verticalAlign=top;spacingLeft=4;spacingRight=4;overflow=hidden;rotatable=0;points=[[0,0.5],[1,0.5]];portConstraint=eastwest;" vertex="1" parent="I50rtq2obIs9mzNsYuY3-21">
          <mxGeometry y="26" width="196" height="26" as="geometry" />
        </mxCell>
        <mxCell id="I50rtq2obIs9mzNsYuY3-23" value="- int port;" style="text;align=left;verticalAlign=top;spacingLeft=4;spacingRight=4;overflow=hidden;rotatable=0;points=[[0,0.5],[1,0.5]];portConstraint=eastwest;rounded=0;shadow=0;html=0;" vertex="1" parent="I50rtq2obIs9mzNsYuY3-21">
          <mxGeometry y="52" width="196" height="26" as="geometry" />
        </mxCell>
        <mxCell id="I50rtq2obIs9mzNsYuY3-24" value="- String dictFile;" style="text;align=left;verticalAlign=top;spacingLeft=4;spacingRight=4;overflow=hidden;rotatable=0;points=[[0,0.5],[1,0.5]];portConstraint=eastwest;rounded=0;shadow=0;html=0;" vertex="1" parent="I50rtq2obIs9mzNsYuY3-21">
          <mxGeometry y="78" width="196" height="26" as="geometry" />
        </mxCell>
        <mxCell id="I50rtq2obIs9mzNsYuY3-25" value="- Consumer&lt;String&gt; logger;" style="text;align=left;verticalAlign=top;spacingLeft=4;spacingRight=4;overflow=hidden;rotatable=0;points=[[0,0.5],[1,0.5]];portConstraint=eastwest;rounded=0;shadow=0;html=0;" vertex="1" parent="I50rtq2obIs9mzNsYuY3-21">
          <mxGeometry y="104" width="196" height="26" as="geometry" />
        </mxCell>
        <mxCell id="I50rtq2obIs9mzNsYuY3-26" value="" style="line;html=1;strokeWidth=1;align=left;verticalAlign=middle;spacingTop=-1;spacingLeft=3;spacingRight=3;rotatable=0;labelPosition=right;points=[];portConstraint=eastwest;" vertex="1" parent="I50rtq2obIs9mzNsYuY3-21">
          <mxGeometry y="130" width="196" height="8" as="geometry" />
        </mxCell>
        <mxCell id="I50rtq2obIs9mzNsYuY3-30" value="+ run(): void" style="text;align=left;verticalAlign=top;spacingLeft=4;spacingRight=4;overflow=hidden;rotatable=0;points=[[0,0.5],[1,0.5]];portConstraint=eastwest;" vertex="1" parent="I50rtq2obIs9mzNsYuY3-21">
          <mxGeometry y="138" width="196" height="26" as="geometry" />
        </mxCell>
        <mxCell id="I50rtq2obIs9mzNsYuY3-31" value="MessageProtocol" style="swimlane;fontStyle=2;align=center;verticalAlign=top;childLayout=stackLayout;horizontal=1;startSize=26;horizontalStack=0;resizeParent=1;resizeLast=0;collapsible=1;marginBottom=0;rounded=0;shadow=0;strokeWidth=1;" vertex="1" parent="WIyWlLk6GJQsqaUBKTNV-1">
          <mxGeometry x="-1320" y="405" width="510" height="300" as="geometry">
            <mxRectangle x="230" y="140" width="160" height="26" as="alternateBounds" />
          </mxGeometry>
        </mxCell>
        <mxCell id="I50rtq2obIs9mzNsYuY3-36" value="" style="line;html=1;strokeWidth=1;align=left;verticalAlign=middle;spacingTop=-1;spacingLeft=3;spacingRight=3;rotatable=0;labelPosition=right;points=[];portConstraint=eastwest;" vertex="1" parent="I50rtq2obIs9mzNsYuY3-31">
          <mxGeometry y="26" width="510" height="8" as="geometry" />
        </mxCell>
        <mxCell id="I50rtq2obIs9mzNsYuY3-37" value="+ queryMessage(String word): String;" style="text;align=left;verticalAlign=top;spacingLeft=4;spacingRight=4;overflow=hidden;rotatable=0;points=[[0,0.5],[1,0.5]];portConstraint=eastwest;" vertex="1" parent="I50rtq2obIs9mzNsYuY3-31">
          <mxGeometry y="34" width="510" height="26" as="geometry" />
        </mxCell>
        <mxCell id="I50rtq2obIs9mzNsYuY3-39" value="+ queryReply(List&lt;String&gt; meanings): String;" style="text;align=left;verticalAlign=top;spacingLeft=4;spacingRight=4;overflow=hidden;rotatable=0;points=[[0,0.5],[1,0.5]];portConstraint=eastwest;" vertex="1" parent="I50rtq2obIs9mzNsYuY3-31">
          <mxGeometry y="60" width="510" height="26" as="geometry" />
        </mxCell>
        <mxCell id="I50rtq2obIs9mzNsYuY3-40" value="+ getMeaningFromReply(String queryReply): String;" style="text;align=left;verticalAlign=top;spacingLeft=4;spacingRight=4;overflow=hidden;rotatable=0;points=[[0,0.5],[1,0.5]];portConstraint=eastwest;" vertex="1" parent="I50rtq2obIs9mzNsYuY3-31">
          <mxGeometry y="86" width="510" height="26" as="geometry" />
        </mxCell>
        <mxCell id="I50rtq2obIs9mzNsYuY3-41" value="+ addMessage(String word, List&lt;String&gt; meanings): String;" style="text;align=left;verticalAlign=top;spacingLeft=4;spacingRight=4;overflow=hidden;rotatable=0;points=[[0,0.5],[1,0.5]];portConstraint=eastwest;" vertex="1" parent="I50rtq2obIs9mzNsYuY3-31">
          <mxGeometry y="112" width="510" height="26" as="geometry" />
        </mxCell>
        <mxCell id="I50rtq2obIs9mzNsYuY3-42" value="+ removeMessage(String word): String;" style="text;align=left;verticalAlign=top;spacingLeft=4;spacingRight=4;overflow=hidden;rotatable=0;points=[[0,0.5],[1,0.5]];portConstraint=eastwest;" vertex="1" parent="I50rtq2obIs9mzNsYuY3-31">
          <mxGeometry y="138" width="510" height="26" as="geometry" />
        </mxCell>
        <mxCell id="I50rtq2obIs9mzNsYuY3-43" value="+ addMeaningMessage(String word, String newMeaning): String;" style="text;align=left;verticalAlign=top;spacingLeft=4;spacingRight=4;overflow=hidden;rotatable=0;points=[[0,0.5],[1,0.5]];portConstraint=eastwest;" vertex="1" parent="I50rtq2obIs9mzNsYuY3-31">
          <mxGeometry y="164" width="510" height="26" as="geometry" />
        </mxCell>
        <mxCell id="I50rtq2obIs9mzNsYuY3-44" value="+ updateMeaningMessage(String word, String originalMeaning, String newMeaning): String;" style="text;align=left;verticalAlign=top;spacingLeft=4;spacingRight=4;overflow=hidden;rotatable=0;points=[[0,0.5],[1,0.5]];portConstraint=eastwest;" vertex="1" parent="I50rtq2obIs9mzNsYuY3-31">
          <mxGeometry y="190" width="510" height="26" as="geometry" />
        </mxCell>
        <mxCell id="I50rtq2obIs9mzNsYuY3-46" value="+ processJsonMessage(String json): Map&lt;String, object&gt;;" style="text;align=left;verticalAlign=top;spacingLeft=4;spacingRight=4;overflow=hidden;rotatable=0;points=[[0,0.5],[1,0.5]];portConstraint=eastwest;" vertex="1" parent="I50rtq2obIs9mzNsYuY3-31">
          <mxGeometry y="216" width="510" height="26" as="geometry" />
        </mxCell>
        <mxCell id="I50rtq2obIs9mzNsYuY3-47" value="+ errorMessage(String err): String;" style="text;align=left;verticalAlign=top;spacingLeft=4;spacingRight=4;overflow=hidden;rotatable=0;points=[[0,0.5],[1,0.5]];portConstraint=eastwest;" vertex="1" parent="I50rtq2obIs9mzNsYuY3-31">
          <mxGeometry y="242" width="510" height="26" as="geometry" />
        </mxCell>
        <mxCell id="I50rtq2obIs9mzNsYuY3-48" value="+ successMessage(String success): String;" style="text;align=left;verticalAlign=top;spacingLeft=4;spacingRight=4;overflow=hidden;rotatable=0;points=[[0,0.5],[1,0.5]];portConstraint=eastwest;" vertex="1" parent="I50rtq2obIs9mzNsYuY3-31">
          <mxGeometry y="268" width="510" height="26" as="geometry" />
        </mxCell>
        <mxCell id="I50rtq2obIs9mzNsYuY3-49" value="Server" style="swimlane;fontStyle=2;align=center;verticalAlign=top;childLayout=stackLayout;horizontal=1;startSize=26;horizontalStack=0;resizeParent=1;resizeLast=0;collapsible=1;marginBottom=0;rounded=0;shadow=0;strokeWidth=1;" vertex="1" parent="WIyWlLk6GJQsqaUBKTNV-1">
          <mxGeometry x="-1100" y="805" width="196" height="270" as="geometry">
            <mxRectangle x="230" y="140" width="160" height="26" as="alternateBounds" />
          </mxGeometry>
        </mxCell>
        <mxCell id="I50rtq2obIs9mzNsYuY3-50" value="- JTextField portField, fileField;" style="text;align=left;verticalAlign=top;spacingLeft=4;spacingRight=4;overflow=hidden;rotatable=0;points=[[0,0.5],[1,0.5]];portConstraint=eastwest;" vertex="1" parent="I50rtq2obIs9mzNsYuY3-49">
          <mxGeometry y="26" width="196" height="26" as="geometry" />
        </mxCell>
        <mxCell id="I50rtq2obIs9mzNsYuY3-56" value="- JButton startButton;" style="text;align=left;verticalAlign=top;spacingLeft=4;spacingRight=4;overflow=hidden;rotatable=0;points=[[0,0.5],[1,0.5]];portConstraint=eastwest;" vertex="1" parent="I50rtq2obIs9mzNsYuY3-49">
          <mxGeometry y="52" width="196" height="26" as="geometry" />
        </mxCell>
        <mxCell id="I50rtq2obIs9mzNsYuY3-51" value="- JtextArea logArea;" style="text;align=left;verticalAlign=top;spacingLeft=4;spacingRight=4;overflow=hidden;rotatable=0;points=[[0,0.5],[1,0.5]];portConstraint=eastwest;rounded=0;shadow=0;html=0;" vertex="1" parent="I50rtq2obIs9mzNsYuY3-49">
          <mxGeometry y="78" width="196" height="26" as="geometry" />
        </mxCell>
        <mxCell id="I50rtq2obIs9mzNsYuY3-52" value="- ExecutorService pool;" style="text;align=left;verticalAlign=top;spacingLeft=4;spacingRight=4;overflow=hidden;rotatable=0;points=[[0,0.5],[1,0.5]];portConstraint=eastwest;rounded=0;shadow=0;html=0;" vertex="1" parent="I50rtq2obIs9mzNsYuY3-49">
          <mxGeometry y="104" width="196" height="26" as="geometry" />
        </mxCell>
        <mxCell id="I50rtq2obIs9mzNsYuY3-53" value="- ServerSocket serverSocket;" style="text;align=left;verticalAlign=top;spacingLeft=4;spacingRight=4;overflow=hidden;rotatable=0;points=[[0,0.5],[1,0.5]];portConstraint=eastwest;rounded=0;shadow=0;html=0;" vertex="1" parent="I50rtq2obIs9mzNsYuY3-49">
          <mxGeometry y="130" width="196" height="26" as="geometry" />
        </mxCell>
        <mxCell id="I50rtq2obIs9mzNsYuY3-57" value="- boolean isRunning;" style="text;align=left;verticalAlign=top;spacingLeft=4;spacingRight=4;overflow=hidden;rotatable=0;points=[[0,0.5],[1,0.5]];portConstraint=eastwest;rounded=0;shadow=0;html=0;" vertex="1" parent="I50rtq2obIs9mzNsYuY3-49">
          <mxGeometry y="156" width="196" height="26" as="geometry" />
        </mxCell>
        <mxCell id="I50rtq2obIs9mzNsYuY3-54" value="" style="line;html=1;strokeWidth=1;align=left;verticalAlign=middle;spacingTop=-1;spacingLeft=3;spacingRight=3;rotatable=0;labelPosition=right;points=[];portConstraint=eastwest;" vertex="1" parent="I50rtq2obIs9mzNsYuY3-49">
          <mxGeometry y="182" width="196" height="8" as="geometry" />
        </mxCell>
        <mxCell id="I50rtq2obIs9mzNsYuY3-55" value="- startServer(ActionEvent e): void;" style="text;align=left;verticalAlign=top;spacingLeft=4;spacingRight=4;overflow=hidden;rotatable=0;points=[[0,0.5],[1,0.5]];portConstraint=eastwest;" vertex="1" parent="I50rtq2obIs9mzNsYuY3-49">
          <mxGeometry y="190" width="196" height="26" as="geometry" />
        </mxCell>
        <mxCell id="I50rtq2obIs9mzNsYuY3-58" value="- log(String msg): void;" style="text;align=left;verticalAlign=top;spacingLeft=4;spacingRight=4;overflow=hidden;rotatable=0;points=[[0,0.5],[1,0.5]];portConstraint=eastwest;" vertex="1" parent="I50rtq2obIs9mzNsYuY3-49">
          <mxGeometry y="216" width="196" height="26" as="geometry" />
        </mxCell>
        <mxCell id="I50rtq2obIs9mzNsYuY3-59" value="- stopServer(): void;" style="text;align=left;verticalAlign=top;spacingLeft=4;spacingRight=4;overflow=hidden;rotatable=0;points=[[0,0.5],[1,0.5]];portConstraint=eastwest;" vertex="1" parent="I50rtq2obIs9mzNsYuY3-49">
          <mxGeometry y="242" width="196" height="26" as="geometry" />
        </mxCell>
        <mxCell id="I50rtq2obIs9mzNsYuY3-62" value="DictionaryHandler" style="swimlane;fontStyle=2;align=center;verticalAlign=top;childLayout=stackLayout;horizontal=1;startSize=26;horizontalStack=0;resizeParent=1;resizeLast=0;collapsible=1;marginBottom=0;rounded=0;shadow=0;strokeWidth=1;" vertex="1" parent="WIyWlLk6GJQsqaUBKTNV-1">
          <mxGeometry x="-680" y="455" width="620" height="220" as="geometry">
            <mxRectangle x="230" y="140" width="160" height="26" as="alternateBounds" />
          </mxGeometry>
        </mxCell>
        <mxCell id="I50rtq2obIs9mzNsYuY3-63" value="+ Handler(String json, String dictFile): String;" style="text;align=left;verticalAlign=top;spacingLeft=4;spacingRight=4;overflow=hidden;rotatable=0;points=[[0,0.5],[1,0.5]];portConstraint=eastwest;" vertex="1" parent="I50rtq2obIs9mzNsYuY3-62">
          <mxGeometry y="26" width="620" height="26" as="geometry" />
        </mxCell>
        <mxCell id="I50rtq2obIs9mzNsYuY3-64" value="- readDictionary(String dictFile): Map&lt;String, List&lt;String&gt;&gt;;" style="text;align=left;verticalAlign=top;spacingLeft=4;spacingRight=4;overflow=hidden;rotatable=0;points=[[0,0.5],[1,0.5]];portConstraint=eastwest;rounded=0;shadow=0;html=0;" vertex="1" parent="I50rtq2obIs9mzNsYuY3-62">
          <mxGeometry y="52" width="620" height="26" as="geometry" />
        </mxCell>
        <mxCell id="I50rtq2obIs9mzNsYuY3-65" value="- queryHandler(Map&lt;String, object&gt; jsonMap, Map&lt;String, List&lt;String&gt;&gt; dictionary): String;" style="text;align=left;verticalAlign=top;spacingLeft=4;spacingRight=4;overflow=hidden;rotatable=0;points=[[0,0.5],[1,0.5]];portConstraint=eastwest;rounded=0;shadow=0;html=0;" vertex="1" parent="I50rtq2obIs9mzNsYuY3-62">
          <mxGeometry y="78" width="620" height="26" as="geometry" />
        </mxCell>
        <mxCell id="I50rtq2obIs9mzNsYuY3-66" value="- addHandler(Map&lt;String, object&gt; jsonMap, Map&lt;String, List&lt;String&gt;&gt; dictionary, String dictFile): String;" style="text;align=left;verticalAlign=top;spacingLeft=4;spacingRight=4;overflow=hidden;rotatable=0;points=[[0,0.5],[1,0.5]];portConstraint=eastwest;rounded=0;shadow=0;html=0;" vertex="1" parent="I50rtq2obIs9mzNsYuY3-62">
          <mxGeometry y="104" width="620" height="26" as="geometry" />
        </mxCell>
        <mxCell id="I50rtq2obIs9mzNsYuY3-69" value="- removeHandler(Map&lt;String, object&gt; jsonMap, Map&lt;String, List&lt;String&gt;&gt; dictionary, String dictFile): String;" style="text;align=left;verticalAlign=top;spacingLeft=4;spacingRight=4;overflow=hidden;rotatable=0;points=[[0,0.5],[1,0.5]];portConstraint=eastwest;rounded=0;shadow=0;html=0;" vertex="1" parent="I50rtq2obIs9mzNsYuY3-62">
          <mxGeometry y="130" width="620" height="26" as="geometry" />
        </mxCell>
        <mxCell id="I50rtq2obIs9mzNsYuY3-70" value="- addMeaningHandler(Map&lt;String, object&gt; jsonMap, Map&lt;String, List&lt;String&gt;&gt; dictionary, String dictFile): String;" style="text;align=left;verticalAlign=top;spacingLeft=4;spacingRight=4;overflow=hidden;rotatable=0;points=[[0,0.5],[1,0.5]];portConstraint=eastwest;rounded=0;shadow=0;html=0;" vertex="1" parent="I50rtq2obIs9mzNsYuY3-62">
          <mxGeometry y="156" width="620" height="26" as="geometry" />
        </mxCell>
        <mxCell id="I50rtq2obIs9mzNsYuY3-71" value="- updateMeaningHandler(Map&lt;String, object&gt; jsonMap, Map&lt;String, List&lt;String&gt;&gt; dictionary, String dictFile): String;" style="text;align=left;verticalAlign=top;spacingLeft=4;spacingRight=4;overflow=hidden;rotatable=0;points=[[0,0.5],[1,0.5]];portConstraint=eastwest;rounded=0;shadow=0;html=0;" vertex="1" parent="I50rtq2obIs9mzNsYuY3-62">
          <mxGeometry y="182" width="620" height="26" as="geometry" />
        </mxCell>
        <mxCell id="I50rtq2obIs9mzNsYuY3-67" value="" style="line;html=1;strokeWidth=1;align=left;verticalAlign=middle;spacingTop=-1;spacingLeft=3;spacingRight=3;rotatable=0;labelPosition=right;points=[];portConstraint=eastwest;" vertex="1" parent="I50rtq2obIs9mzNsYuY3-62">
          <mxGeometry y="208" width="620" height="8" as="geometry" />
        </mxCell>
        <mxCell id="I50rtq2obIs9mzNsYuY3-86" value="«interface»&lt;br&gt;&lt;b&gt;Runnable&lt;/b&gt;" style="html=1;whiteSpace=wrap;" vertex="1" parent="WIyWlLk6GJQsqaUBKTNV-1">
          <mxGeometry x="-480" y="735" width="110" height="50" as="geometry" />
        </mxCell>
        <mxCell id="I50rtq2obIs9mzNsYuY3-88" value="JFrame" style="swimlane;fontStyle=1;align=center;verticalAlign=top;childLayout=stackLayout;horizontal=1;startSize=26;horizontalStack=0;resizeParent=1;resizeParentMax=0;resizeLast=0;collapsible=1;marginBottom=0;whiteSpace=wrap;html=1;" vertex="1" parent="WIyWlLk6GJQsqaUBKTNV-1">
          <mxGeometry x="-1640" y="565" width="160" height="86" as="geometry" />
        </mxCell>
        <mxCell id="I50rtq2obIs9mzNsYuY3-89" value="......." style="text;strokeColor=none;fillColor=none;align=left;verticalAlign=top;spacingLeft=4;spacingRight=4;overflow=hidden;rotatable=0;points=[[0,0.5],[1,0.5]];portConstraint=eastwest;whiteSpace=wrap;html=1;" vertex="1" parent="I50rtq2obIs9mzNsYuY3-88">
          <mxGeometry y="26" width="160" height="26" as="geometry" />
        </mxCell>
        <mxCell id="I50rtq2obIs9mzNsYuY3-90" value="" style="line;strokeWidth=1;fillColor=none;align=left;verticalAlign=middle;spacingTop=-1;spacingLeft=3;spacingRight=3;rotatable=0;labelPosition=right;points=[];portConstraint=eastwest;strokeColor=inherit;" vertex="1" parent="I50rtq2obIs9mzNsYuY3-88">
          <mxGeometry y="52" width="160" height="8" as="geometry" />
        </mxCell>
        <mxCell id="I50rtq2obIs9mzNsYuY3-91" value="......." style="text;strokeColor=none;fillColor=none;align=left;verticalAlign=top;spacingLeft=4;spacingRight=4;overflow=hidden;rotatable=0;points=[[0,0.5],[1,0.5]];portConstraint=eastwest;whiteSpace=wrap;html=1;" vertex="1" parent="I50rtq2obIs9mzNsYuY3-88">
          <mxGeometry y="60" width="160" height="26" as="geometry" />
        </mxCell>
        <mxCell id="I50rtq2obIs9mzNsYuY3-92" value="" style="endArrow=open;endFill=1;endSize=12;html=1;rounded=0;movable=0;resizable=0;rotatable=0;deletable=0;editable=0;locked=1;connectable=0;" edge="1" parent="WIyWlLk6GJQsqaUBKTNV-1" source="zkfFHV4jXpPFQw0GAbJ--0" target="zkfFHV4jXpPFQw0GAbJ--17">
          <mxGeometry width="160" relative="1" as="geometry">
            <mxPoint x="-1400" y="395" as="sourcePoint" />
            <mxPoint x="-1240" y="395" as="targetPoint" />
          </mxGeometry>
        </mxCell>
        <mxCell id="I50rtq2obIs9mzNsYuY3-94" value="Extends" style="endArrow=block;endSize=16;endFill=0;html=1;rounded=0;" edge="1" parent="WIyWlLk6GJQsqaUBKTNV-1" source="I50rtq2obIs9mzNsYuY3-49" target="I50rtq2obIs9mzNsYuY3-88">
          <mxGeometry width="160" relative="1" as="geometry">
            <mxPoint x="-1600" y="835" as="sourcePoint" />
            <mxPoint x="-1440" y="835" as="targetPoint" />
          </mxGeometry>
        </mxCell>
        <mxCell id="I50rtq2obIs9mzNsYuY3-95" value="Extends" style="endArrow=block;endSize=16;endFill=0;html=1;rounded=0;" edge="1" parent="WIyWlLk6GJQsqaUBKTNV-1" source="zkfFHV4jXpPFQw0GAbJ--0" target="I50rtq2obIs9mzNsYuY3-88">
          <mxGeometry width="160" relative="1" as="geometry">
            <mxPoint x="-1690" y="365" as="sourcePoint" />
            <mxPoint x="-1530" y="365" as="targetPoint" />
          </mxGeometry>
        </mxCell>
        <mxCell id="I50rtq2obIs9mzNsYuY3-96" value="" style="endArrow=open;endFill=1;endSize=12;html=1;rounded=0;" edge="1" parent="WIyWlLk6GJQsqaUBKTNV-1" source="I50rtq2obIs9mzNsYuY3-49" target="I50rtq2obIs9mzNsYuY3-21">
          <mxGeometry width="160" relative="1" as="geometry">
            <mxPoint x="-1090" y="915" as="sourcePoint" />
            <mxPoint x="-930" y="915" as="targetPoint" />
          </mxGeometry>
        </mxCell>
        <mxCell id="I50rtq2obIs9mzNsYuY3-97" value="1" style="text;html=1;align=center;verticalAlign=middle;resizable=0;points=[];autosize=1;strokeColor=none;fillColor=none;" vertex="1" parent="WIyWlLk6GJQsqaUBKTNV-1">
          <mxGeometry x="-904" y="915" width="30" height="30" as="geometry" />
        </mxCell>
        <mxCell id="I50rtq2obIs9mzNsYuY3-98" value="10" style="text;html=1;align=center;verticalAlign=middle;resizable=0;points=[];autosize=1;strokeColor=none;fillColor=none;" vertex="1" parent="WIyWlLk6GJQsqaUBKTNV-1">
          <mxGeometry x="-820" y="915" width="40" height="30" as="geometry" />
        </mxCell>
        <mxCell id="I50rtq2obIs9mzNsYuY3-99" value="" style="endArrow=block;dashed=1;endFill=0;endSize=12;html=1;rounded=0;" edge="1" parent="WIyWlLk6GJQsqaUBKTNV-1" source="I50rtq2obIs9mzNsYuY3-21" target="I50rtq2obIs9mzNsYuY3-86">
          <mxGeometry width="160" relative="1" as="geometry">
            <mxPoint x="-670" y="755" as="sourcePoint" />
            <mxPoint x="-510" y="755" as="targetPoint" />
          </mxGeometry>
        </mxCell>
        <mxCell id="I50rtq2obIs9mzNsYuY3-101" value="Use" style="endArrow=open;endSize=12;dashed=1;html=1;rounded=0;" edge="1" parent="WIyWlLk6GJQsqaUBKTNV-1" source="zkfFHV4jXpPFQw0GAbJ--17" target="I50rtq2obIs9mzNsYuY3-31">
          <mxGeometry width="160" relative="1" as="geometry">
            <mxPoint x="-660" y="375" as="sourcePoint" />
            <mxPoint x="-500" y="375" as="targetPoint" />
          </mxGeometry>
        </mxCell>
        <mxCell id="I50rtq2obIs9mzNsYuY3-102" value="Use" style="endArrow=open;endSize=12;dashed=1;html=1;rounded=0;" edge="1" parent="WIyWlLk6GJQsqaUBKTNV-1" source="zkfFHV4jXpPFQw0GAbJ--17" target="I50rtq2obIs9mzNsYuY3-62">
          <mxGeometry width="160" relative="1" as="geometry">
            <mxPoint x="-650" y="385" as="sourcePoint" />
            <mxPoint x="-490" y="385" as="targetPoint" />
          </mxGeometry>
        </mxCell>
        <mxCell id="I50rtq2obIs9mzNsYuY3-103" value="Use" style="endArrow=open;endSize=12;dashed=1;html=1;rounded=0;" edge="1" parent="WIyWlLk6GJQsqaUBKTNV-1" source="I50rtq2obIs9mzNsYuY3-49" target="I50rtq2obIs9mzNsYuY3-31">
          <mxGeometry width="160" relative="1" as="geometry">
            <mxPoint x="-640" y="395" as="sourcePoint" />
            <mxPoint x="-480" y="395" as="targetPoint" />
          </mxGeometry>
        </mxCell>
        <mxCell id="I50rtq2obIs9mzNsYuY3-104" value="Use" style="endArrow=open;endSize=12;dashed=1;html=1;rounded=0;" edge="1" parent="WIyWlLk6GJQsqaUBKTNV-1" source="I50rtq2obIs9mzNsYuY3-21" target="I50rtq2obIs9mzNsYuY3-62">
          <mxGeometry width="160" relative="1" as="geometry">
            <mxPoint x="-630" y="405" as="sourcePoint" />
            <mxPoint x="-470" y="405" as="targetPoint" />
          </mxGeometry>
        </mxCell>
        <mxCell id="I50rtq2obIs9mzNsYuY3-105" value="1" style="text;html=1;align=center;verticalAlign=middle;resizable=0;points=[];autosize=1;strokeColor=none;fillColor=none;movable=0;rotatable=0;deletable=0;editable=0;locked=1;connectable=0;" vertex="1" parent="WIyWlLk6GJQsqaUBKTNV-1">
          <mxGeometry x="-1234" y="183" width="30" height="30" as="geometry" />
        </mxCell>
        <mxCell id="I50rtq2obIs9mzNsYuY3-106" value="1" style="text;html=1;align=center;verticalAlign=middle;resizable=0;points=[];autosize=1;strokeColor=none;fillColor=none;movable=0;rotatable=0;deletable=0;editable=0;locked=1;connectable=0;" vertex="1" parent="WIyWlLk6GJQsqaUBKTNV-1">
          <mxGeometry x="-1080" y="183" width="30" height="30" as="geometry" />
        </mxCell>
      </root>
    </mxGraphModel>
  </diagram>
</mxfile>
